<?xml version="1.0" encoding="UTF-8"?>
<svg version="1.1" xmlns="http://www.w3.org/2000/svg" viewBox="0 0 631 631" width="631" height="631">
<path d="M0 0 C208.23 0 416.46 0 631 0 C631 208.23 631 416.46 631 631 C422.77 631 214.54 631 0 631 C0 422.77 0 214.54 0 0 Z " fill="#0B0B0D" transform="translate(0,0)"/>
<path d="M0 0 C1.14855469 0.35191406 2.29710937 0.70382813 3.48046875 1.06640625 C29.39204788 9.62824756 47.72906056 27.0282171 60.1796875 50.97265625 C61.83964915 54.39096634 62.81604935 57.77602188 63.72631836 61.4543457 C65.35262781 68.15822239 65.35262781 68.15822239 69.83203125 73.3046875 C72.86662725 74.83849781 75.74516294 76.02847367 79 77 C79.64710938 77.20109375 80.29421875 77.4021875 80.9609375 77.609375 C91.86746481 79.69874805 101.66332151 77.69903607 111.125 72.17578125 C121.90939114 66.0221877 132.13563472 65.08309425 144.26953125 67.70703125 C150.07011445 69.65715579 155.39291963 72.6907024 160.6875 75.73046875 C167.70894067 79.58514479 178.23786924 79.10088888 185.95703125 77.31640625 C188.4205043 76.35728346 190.68123409 75.26934107 193 74 C193.97066406 73.48308594 194.94132812 72.96617187 195.94140625 72.43359375 C197.85547836 71.39794847 199.76028803 70.34487227 201.65234375 69.26953125 C206.62237654 66.58190953 211.11584152 66.74746907 216.625 66.6875 C217.48996094 66.65849609 218.35492188 66.62949219 219.24609375 66.59960938 C225.73143734 66.53640888 230.30465444 67.97818896 236 71 C237.10988281 71.55042969 238.21976562 72.10085938 239.36328125 72.66796875 C241.3428975 73.68792997 243.32205847 74.70877529 245.30078125 75.73046875 C252.6111262 79.16876413 261.47043417 79.15847078 269.22265625 77.17578125 C271.87733071 76.21466762 274.43999318 75.18888452 277 74 C278.09634766 73.59007812 278.09634766 73.59007812 279.21484375 73.171875 C281.74328962 71.51206371 281.82388888 70.04494258 282.4375 67.125 C288.26404552 43.22681598 303.87317723 22.79359233 324.70019531 9.95166016 C340.05419984 0.81438148 355.40632586 -3.24675065 373.25 -3.3125 C374.26010635 -3.31642761 374.26010635 -3.31642761 375.2906189 -3.32043457 C389.55428007 -3.32638582 402.20038729 -1.58598254 415 5 C415.89460937 5.39574219 416.78921875 5.79148438 417.7109375 6.19921875 C440.5247053 16.64804416 456.85785493 36.66434645 465.55859375 59.875 C472.21805093 78.59533096 472.8555117 101.90563791 466.3125 120.8125 C466.0448584 121.59439697 465.7772168 122.37629395 465.50146484 123.18188477 C461.59756582 134.29553286 456.32220931 143.76339628 449 153 C448.40703125 153.75925781 447.8140625 154.51851562 447.203125 155.30078125 C433.42846197 171.87158315 411.93624845 184.494134 390.36450195 186.8190918 C362.23261214 188.97146457 335.9660575 185.10972363 313.7265625 166.5625 C311.39554183 164.45297903 309.15866294 162.28564311 307 160 C306.401875 159.443125 305.80375 158.88625 305.1875 158.3125 C304 157 304 157 304 155 C303.01 154.67 302.02 154.34 301 154 C299.2765404 151.781157 297.71758832 149.5966729 296.1875 147.25 C295.74390137 146.57404785 295.30030273 145.8980957 294.84326172 145.20166016 C288.35097436 135.09754979 284.21281685 124.54724174 281 113 C278.4994266 113 277.2231786 113.8381946 274.99609375 114.96875 C269.92939845 117.26249088 265.57056916 117.62162595 260.0625 117.5 C259.18078125 117.48791504 258.2990625 117.47583008 257.390625 117.46337891 C250.84428797 117.26335194 245.7578729 116.20531334 240 113 C237.85566655 111.93447619 235.70977053 110.87209247 233.5625 109.8125 C232.57378906 109.30332031 231.58507812 108.79414063 230.56640625 108.26953125 C223.13699947 104.59440613 212.08049455 104.69256462 204.125 107.125 C199.96254758 108.78838921 196.20381825 111.15572044 192.45703125 113.59765625 C183.82244648 118.52582148 172.86336581 118.07087977 163.24609375 116.5703125 C157.636436 114.89671295 152.72465974 111.61308031 147.796875 108.5234375 C140.89948546 104.76647951 131.66044677 104.68051335 124 106 C119.61418134 107.4821177 115.63192174 109.67148182 111.62109375 111.95703125 C104.78595757 115.85037131 99.43944871 117.4873483 91.625 117.375 C90.82578125 117.38660156 90.0265625 117.39820313 89.203125 117.41015625 C81.39195996 117.37223797 74.50503516 115.40663672 68 111 C66.50822185 114.53893691 65.43119543 118.04404411 64.4375 121.75 C57.06130674 145.72262811 40.00054816 165.19124252 18 177 C-3.69167344 188.23459658 -31.34638033 191.7287031 -54.93334961 184.33520508 C-67.02346552 180.09585102 -78.04043668 174.0662917 -88 166 C-89.14855469 165.09701172 -89.14855469 165.09701172 -90.3203125 164.17578125 C-107.40150181 149.98113438 -118.82073055 127.8335574 -122 106 C-123.01982424 89.83255858 -123.02518361 74.18698339 -117 59 C-116.55398437 57.85015625 -116.10796875 56.7003125 -115.6484375 55.515625 C-105.52783622 31.88204212 -87.76839916 13.73039963 -64.1875 3.25 C-62.13710661 2.46750834 -60.07368306 1.71850178 -58 1 C-56.90300781 0.60683594 -55.80601563 0.21367187 -54.67578125 -0.19140625 C-37.80771118 -5.33607799 -16.8128017 -5.42981533 0 0 Z " fill="#735381" transform="translate(142,225)"/>
</svg>
